<svg height="5214" width="720" xmlns="http://www.w3.org/2000/svg">
<rect height="5214" fill="#555" width="720"></rect>
<text fill="#7f7" font-family="Courier New" font-size="12" xml:space="preserve">
<tspan x="10" y="26">2017-04-15 03:37:42 +0800u000a- fix bug where function apidocCreate cannot document module-funct\</tspan>
<tspan x="10" y="42">ions</tspan>
<tspan x="10" y="58"></tspan>
<tspan x="10" y="74">2017-04-15 03:20:18 +0800u000async</tspan>
<tspan x="10" y="90"></tspan>
<tspan x="10" y="106">2017-04-15 03:01:42 +0800u000arename console.error(error.stack) -&gt; console.error(error)</tspan>
<tspan x="10" y="122"></tspan>
<tspan x="10" y="138">2017-04-15 03:00:36 +0800u000a- add debug-logs for requiring modules in function apidocCreate</tspan>
<tspan x="10" y="154"></tspan>
<tspan x="10" y="170">2017-04-15 02:28:41 +0800u000a- fix bug parsing package.json in shell-function shInit</tspan>
<tspan x="10" y="186"></tspan>
<tspan x="10" y="202">2017-04-14 15:46:32 +0800u000a[npm publish] - npm publish 2017.4.14</tspan>
<tspan x="10" y="218">- begin mass test-coverage of npm-ecosystem under https://github.com/npmtest</tspan>
<tspan x="10" y="234">- add default testCase testCase_buildCustomOrg_default</tspan>
<tspan x="10" y="250">- add shell-function shIsInGithubOrg to auto-determine whether using env-var $GITHUB_ORG is appr\</tspan>
<tspan x="10" y="266">opriate or not</tspan>
<tspan x="10" y="282">- add shell-functions shCryptoAesWithGithubOrg, shNpmNameListFetch</tspan>
<tspan x="10" y="298">- auto-screenCapture test-report and coverage.html in shell-function shBuildCiInternal</tspan>
<tspan x="10" y="314">- improve scaffolding feature of shell-function shBuildApp</tspan>
<tspan x="10" y="330">- merge env-vars $npm_package_buildNpmdoc and $npm_package_readmeParse into $npm_package_buildCu\</tspan>
<tspan x="10" y="346">stomOrg</tspan>
<tspan x="10" y="362">- merge shell-function shBuildCustomOrg into shBuildCiInternal</tspan>
<tspan x="10" y="378">- preserve percent-encoding in screenCapture files (so the url can be reconstructed)</tspan>
<tspan x="10" y="394"></tspan>
<tspan x="10" y="410">2017-04-07 15:50:56 +0800u000a[npm publish] - npm publish 2017.4.6</tspan>
<tspan x="10" y="426">- add auto-retry option to function onParallelList</tspan>
<tspan x="10" y="442">- add depencency-tree-visualization and dependency-tree-size to README.md</tspan>
<tspan x="10" y="458">- add html-scraper to function browerTest</tspan>
<tspan x="10" y="474">- add property 'sortDefault' to dbTable, which defaults to [{ fieldName: '_timeUpdated', isDesce\</tspan>
<tspan x="10" y="490">nding: true }]</tspan>
<tspan x="10" y="506">- add optional callback to function dbTable.prototype.save</tspan>
<tspan x="10" y="522">- add shell-functions shGithubRepoListCreate, shNpmNameNormalize, shNpmPackageDependencyTreeCrea\</tspan>
<tspan x="10" y="538">te, shOnParallelListSpawn, shTravisRepoListFilterForNonActive</tspan>
<tspan x="10" y="554">- add shell-function shNpmPackageNameListGetFromUrl, which allows shNpmdocRepoListCreate to crea\</tspan>
<tspan x="10" y="570">te npmdocs directly from npm-website</tspan>
<tspan x="10" y="586">- enable auto-cancel-mode by default when creating travis-repo</tspan>
<tspan x="10" y="602">- streamline build-process for 'npm publishAfterCommitAfterBuild' to just one stage (alpha)</tspan>
<tspan x="10" y="618"></tspan>
<tspan x="10" y="634">2017-03-30 22:40:41 +0800u000a[npm publish] - npm publish 2017.3.29</tspan>
<tspan x="10" y="650">- add args $modeBrowserTest and $url to shell-function shBrowserTest</tspan>
<tspan x="10" y="666">- add branch-cron</tspan>
<tspan x="10" y="682">- add function dbTableTravisRepoCreate, dbTableTravisRepoCrudGetManyByQuery, dbTableTravisRepoUp\</tspan>
<tspan x="10" y="698">date, and listForEachAsync</tspan>
<tspan x="10" y="714">- add github-crud function contentTouchList</tspan>
<tspan x="10" y="730">- add shell-function shGitRemotePromote to auto-promote branches alpha -&gt; beta -&gt; master</tspan>
<tspan x="10" y="746">- add shell-function shGithubRepoListTouch, shListUnflattenAndApply, and shNpmInstallWithPeerDep\</tspan>
<tspan x="10" y="762">endencies</tspan>
<tspan x="10" y="778">- auto update public travis-repos in alpha-branch</tspan>
<tspan x="10" y="794">- deprecate ssh-key in favor of github oauth - https://stackoverflow.com/questions/18027115/comm\</tspan>
<tspan x="10" y="810">itting-via-travis-ci-failing</tspan>
<tspan x="10" y="826">- enable shNpmdocRepoListCreate in travis-ci</tspan>
<tspan x="10" y="842">- enhance shell-function shNpmPackageListingCreate to add total package-size to package-listing</tspan>
<tspan x="10" y="858">- fix apidoc bug 'Function.prototype.toString is not generic'</tspan>
<tspan x="10" y="874">- fix shell-function shInit bug - export: npm_package_react-native: bad variable name</tspan>
<tspan x="10" y="890">- sanitize sensitive env-vars from electron.*.html</tspan>
<tspan x="10" y="906">- use optional remote-credentials during travis-ci build</tspan>
<tspan x="10" y="922"></tspan>
<tspan x="10" y="938">2017-03-22 01:58:56 +0800u000a[npm publish] - npm publish 2017.3.21</tspan>
<tspan x="10" y="954">- security - rewrite function moduleDirname, so that it doesn't have to require arbitrary module\</tspan>
<tspan x="10" y="970">s</tspan>
<tspan x="10" y="986">- add github-crud command 'touch' to trigger github-hooks and add commit-messages without changi\</tspan>
<tspan x="10" y="1002">ng files</tspan>
<tspan x="10" y="1018">- add commit-message-meta macro 'promote branch1 -&gt; branch2'</tspan>
<tspan x="10" y="1034">- add env var TRAVIS_REPO_CREATE_FORCE to force re-creation of npmdoc</tspan>
<tspan x="10" y="1050">- add env var npm_package_buildNpmdocMain to customize npmdoc target</tspan>
<tspan x="10" y="1066">- add optional commit-message for PUT, DELETE, and TOUCH requests in github-crud</tspan>
<tspan x="10" y="1082">- add package-description to apidoc</tspan>
<tspan x="10" y="1098">- add package-listing to npmdoc</tspan>
<tspan x="10" y="1114">- add package.json to npmdoc</tspan>
<tspan x="10" y="1130">- add async shell-function shNpmdocRepoListCreate to automate creation of npmdoc's</tspan>
<tspan x="10" y="1146">- add shell function shUtility2GrepTravisYml</tspan>
<tspan x="10" y="1162">- fix 'span class' error in https://www.npmjs.com/package/npmdoc-glob</tspan>
<tspan x="10" y="1178">- merge function local.runIfTrue -&gt; local.nop</tspan>
<tspan x="10" y="1194">- rename lib.xxx.npm_scripts.sh to npm_scripts.sh</tspan>
<tspan x="10" y="1210">- shBuildPrint message for deprecate and publish operations</tspan>
<tspan x="10" y="1226"></tspan>
<tspan x="10" y="1242">2017-03-17 21:15:11 +0800u000a[npm publish] - npm publish 2017.3.17</tspan>
<tspan x="10" y="1258">- fix quickstart demo for example.js</tspan>
<tspan x="10" y="1274">- allow auto-deprecating of aliases in publish branch</tspan>
<tspan x="10" y="1290">- allow auto-publishing of aliases in publish branch</tspan>
<tspan x="10" y="1306"></tspan>
<tspan x="10" y="1322">2017-03-17 05:05:24 +0800u000a[npm publish] - npm publish 2017.3.16</tspan>
<tspan x="10" y="1338">- add function buildNpmdoc and buildTest</tspan>
<tspan x="10" y="1354">- automate building and publishing of npmdoc's</tspan>
<tspan x="10" y="1370">- commit tag 'npm publish' will publish package in alpha-branch and promote to beta</tspan>
<tspan x="10" y="1386">- harden shell-function shPasswordEnvUnset</tspan>
<tspan x="10" y="1402">- remove '|| return $?' from shell-scripts when possible to fix 'set -e' failing to exit on erro\</tspan>
<tspan x="10" y="1418">r</tspan>
<tspan x="10" y="1434">- rename function onErrorAssert -&gt; onErrorThrow</tspan>
<tspan x="10" y="1450">- partially revert npm_package_nameAlias back to npm_package_name</tspan>
<tspan x="10" y="1466"></tspan>
<tspan x="10" y="1482">2017-03-11 03:56:44 +0800u000a- npm publish 2017.3.10</tspan>
<tspan x="10" y="1498">- fix build in beta branch</tspan>
<tspan x="10" y="1514"></tspan>
<tspan x="10" y="1530">2017-03-11 02:50:36 +0800u000a- npm publish 2017.3.9</tspan>
<tspan x="10" y="1546">- add functions moduleDirname and onErrorAssert</tspan>
<tspan x="10" y="1562">- add shell-command shPasswordEnvUnset</tspan>
<tspan x="10" y="1578">- rename name api-doc -&gt; apidoc</tspan>
<tspan x="10" y="1594">- revamp build scripts</tspan>
<tspan x="10" y="1610">- split function buildApidoc into new file lib.apidoc.js</tspan>
<tspan x="10" y="1626">- verify README.md's build-links during build</tspan>
<tspan x="10" y="1642"></tspan>
<tspan x="10" y="1658">2017-03-01 17:52:26 +0800u000a- npm publish 2017.2.28</tspan>
<tspan x="10" y="1674">- build - add publish build-branch</tspan>
<tspan x="10" y="1690">- build - auto-clean build if commit-message is CLEAN_BUILD</tspan>
<tspan x="10" y="1706">- build - auto-tag branch in master build-branch</tspan>
<tspan x="10" y="1722">- README.md - normalize browser-script in example.js</tspan>
<tspan x="10" y="1738">- promote utility2 plug in README.md, api-doc, code-coverage, rollup, test-coverage</tspan>
<tspan x="10" y="1754">- lib.db.js - add ttl-cache</tspan>
<tspan x="10" y="1770">- lib.utility2.js - revamp function buildApiDoc</tspan>
<tspan x="10" y="1786">- lib.utility2.sh - revamp shell-function shNpmPublish</tspan>
<tspan x="10" y="1802"></tspan>
<tspan x="10" y="1818">2017-02-21 03:06:56 +0800u000a- npm publish 2017.2.20</tspan>
<tspan x="10" y="1834">- add field nameOriginal to package.json</tspan>
<tspan x="10" y="1850">- do not cover rollups</tspan>
<tspan x="10" y="1866">- merge shell-function shNpmPublishAlias into shNpmPublish</tspan>
<tspan x="10" y="1882">- normalize example.html</tspan>
<tspan x="10" y="1898"></tspan>
<tspan x="10" y="1914">2017-02-20 02:49:59 +0800u000a- npm publish 2017.2.19</tspan>
<tspan x="10" y="1930">- replace env var npm_package_name with npm_package_nameAlias in istanbul code-coverage</tspan>
<tspan x="10" y="1946">- revamp shell-function shNpmPublishAlias</tspan>
<tspan x="10" y="1962"></tspan>
<tspan x="10" y="1978">2017-02-19 01:09:51 +0800u000a- npm publish 2017.2.18</tspan>
<tspan x="10" y="1994">- add shell-function shReadmeTestExampleJs</tspan>
<tspan x="10" y="2010">- do not auto-uglify js-assets in production</tspan>
<tspan x="10" y="2026">- rename doc-api to api-doc</tspan>
<tspan x="10" y="2042">- rename hrku01 to h1</tspan>
<tspan x="10" y="2058">- rename local.template* to local.assetsDict[assets.*.template]</tspan>
<tspan x="10" y="2074">- revamp function buildApiDoc</tspan>
<tspan x="10" y="2090">- revamp function buildReadme and include testCase_buildReadme_default inside testCase_buildApp_\</tspan>
<tspan x="10" y="2106">default</tspan>
<tspan x="10" y="2122">- remove functions assetsAlias, assetsWrite</tspan>
<tspan x="10" y="2138">- use env var npm_package_nameAlias over npm_package_name</tspan>
<tspan x="10" y="2154"></tspan>
<tspan x="10" y="2170">2017-02-06 21:14:20 +0800u000a- npm publish 2017.2.6</tspan>
<tspan x="10" y="2186">- allow env var npm_config_mode_test_case to have comma-separated list of test-cases</tspan>
<tspan x="10" y="2202">- replace function requestResponseCleanup with streamListCleanup</tspan>
<tspan x="10" y="2218">- don't use nameAlias in assets</tspan>
<tspan x="10" y="2234">- rename base64 functions with base64 as prefix</tspan>
<tspan x="10" y="2250">- add commandline options --eval -e --interactive -i</tspan>
<tspan x="10" y="2266">- add env var npm_pacakge_nameHeroku</tspan>
<tspan x="10" y="2282">- add function assetsAlias</tspan>
<tspan x="10" y="2298">- add shell-functions shUtility2DependentsSync shUtility2RollupCreate</tspan>
<tspan x="10" y="2314">- merge files lib.* into standaalone file assets.utility2.rollup.js</tspan>
<tspan x="10" y="2330">- merge files lib.swgg.* into lib.swgg.js</tspan>
<tspan x="10" y="2346"></tspan>
<tspan x="10" y="2362">2017-01-27 14:44:40 +0800u000a- move most logic from Dockerfile.latest to Dockerfile.base</tspan>
<tspan x="10" y="2378">- add shell-function shImageToDataUri</tspan>
<tspan x="10" y="2394">- add shell-function shSshReverseTunnel</tspan>
<tspan x="10" y="2410">- add function sjclHmacSha256Create</tspan>
<tspan x="10" y="2426">- replace localhost with 127.0.0.1</tspan>
<tspan x="10" y="2442"></tspan>
<tspan x="10" y="2458">2017-01-05 20:57:31 +0800u000a- npm publish 2017.1.5</tspan>
<tspan x="10" y="2474">- automate readme-generation with new functions local.buildReadmeElectronLite and local.buildRea\</tspan>
<tspan x="10" y="2490">dmeJslintLite</tspan>
<tspan x="10" y="2506">- revamp github-crud-api</tspan>
<tspan x="10" y="2522">- add function httpRequest</tspan>
<tspan x="10" y="2538">- add shell-function shNpmPublishAlias</tspan>
<tspan x="10" y="2554">- remove function domQuerySelectorAll</tspan>
<tspan x="10" y="2570">- update documentation-generator</tspan>
<tspan x="10" y="2586"></tspan>
<tspan x="10" y="2602">2016-12-26 15:10:22 +0800u000a- add file lib.swgg.css</tspan>
<tspan x="10" y="2618">- add file lib.swgg.js</tspan>
<tspan x="10" y="2634">- add file lib.swgg.json-schema.json</tspan>
<tspan x="10" y="2650">- add file lib.swgg.petstore.json</tspan>
<tspan x="10" y="2666">- add file lib.swgg.schema.json</tspan>
<tspan x="10" y="2682">- add file lib.swgg.ui.js</tspan>
<tspan x="10" y="2698">- add heroku-postbuild npm-script</tspan>
<tspan x="10" y="2714"></tspan>
<tspan x="10" y="2730">2016-12-25 02:10:59 +0800u000a- npm publish 2016.12.2</tspan>
<tspan x="10" y="2746">- merge github-crud into this package</tspan>
<tspan x="10" y="2762">- revamp heroku-deploy</tspan>
<tspan x="10" y="2778">- add middlewareForwardProxy</tspan>
<tspan x="10" y="2794">- add modeDebug option to function local.ajax</tspan>
<tspan x="10" y="2810"></tspan>
<tspan x="10" y="2826">2016-12-13 21:36:58 +0800u000a- npm publish 2016.12.1</tspan>
<tspan x="10" y="2842">- merge utility2 namespace into local namespace</tspan>
<tspan x="10" y="2858">- revamp encryption features to primarily use json-web-encryption</tspan>
<tspan x="10" y="2874"></tspan>
<tspan x="10" y="2890">2016-12-02 12:46:27 +0800u000a- npm publish 2016.11.2</tspan>
<tspan x="10" y="2906">- streamline build-process for other packages</tspan>
<tspan x="10" y="2922"></tspan>
<tspan x="10" y="2938">2016-11-29 15:15:04 +0800u000a- npm publish 2016.11.1</tspan>
<tspan x="10" y="2954">- rename files index.* -&gt; lib.utility2.*</tspan>
<tspan x="10" y="2970">- use 'local' as primary namespace for tests</tspan>
<tspan x="10" y="2986">- replace function uglifyIfProduction with assetsWrite</tspan>
<tspan x="10" y="3002">- rename function middlewareJsonpStateInitDefault -&gt; middlewareJsonpStateInit</tspan>
<tspan x="10" y="3018">- add env npm_package_nameAlias</tspan>
<tspan x="10" y="3034">- add webkit-polyfill for TextDecoder and TextEncoder</tspan>
<tspan x="10" y="3050"></tspan>
<tspan x="10" y="3066">2016-11-21 09:31:23 +0800u000a- npm publish 2016.10.4</tspan>
<tspan x="10" y="3082">- add es6-syntax support for code-coverage</tspan>
<tspan x="10" y="3098">- add functions utility2.normalizeDict and utility2.normalizeList</tspan>
<tspan x="10" y="3114">- coverage - globalize local.codeDict to global.__coverageCodeDict__</tspan>
<tspan x="10" y="3130">- coverage - add in-file config-var /* istanbul ignore all */ to ignore the file</tspan>
<tspan x="10" y="3146"></tspan>
<tspan x="10" y="3162">2016-11-11 20:03:17 +0800u000a- npm publish 2016.10.3</tspan>
<tspan x="10" y="3178">- coverage - add env-variable npm_config_mode_coverage_append to allow appending coverage to pre\</tspan>
<tspan x="10" y="3194">vious reports</tspan>
<tspan x="10" y="3210">- coverage - change behavior of npm_config_mode_coverage=all to cover all files</tspan>
<tspan x="10" y="3226">- function utility2.replStart - make it a standalone function</tspan>
<tspan x="10" y="3242">- function utility2.uglify - prefer uglifying code with 80-column-width</tspan>
<tspan x="10" y="3258"></tspan>
<tspan x="10" y="3274">2016-11-07 23:47:37 +0800u000a- npm publish 2016.10.2</tspan>
<tspan x="10" y="3290">- decouple lib.db.js from utility2's init</tspan>
<tspan x="10" y="3306">- replace loading spinner with topbar</tspan>
<tspan x="10" y="3322">- fix utility2.errorDefault getting its stack prepended</tspan>
<tspan x="10" y="3338">- rename .ajaxProgressDiv -&gt; #ajaxProgressDiv1, .testReportDiv -&gt; #testReportDiv1</tspan>
<tspan x="10" y="3354">- merge functions utility2.taskOnTaskUpsert and utility2.taskOnErrorPush -&gt; utility2.taskCreate</tspan>
<tspan x="10" y="3370">- change signature of function utility2.taskCreateCached</tspan>
<tspan x="10" y="3386">- remove functions utility2.ajaxProgressShow, utility2.dbReset</tspan>
<tspan x="10" y="3402">- README.md - add cdn-download links</tspan>
<tspan x="10" y="3418">- README.md - replace alpha api-doc with beta api-doc</tspan>
<tspan x="10" y="3434"></tspan>
<tspan x="10" y="3450">2016-10-17 20:46:38 +0800u000a- npm publish 2016.10.1</tspan>
<tspan x="10" y="3466">- migrate from lib.nedb.js to lib.db.js</tspan>
<tspan x="10" y="3482">- make index.js a standalone script</tspan>
<tspan x="10" y="3498">- add property utility2.testCaseDict</tspan>
<tspan x="10" y="3514">- cull testCase_xxx properties in function docApiCreate</tspan>
<tspan x="10" y="3530">- auto-default null / undefined arguments to empty object {} in utility2.objectSetDefault and ut\</tspan>
<tspan x="10" y="3546">ility2.objectSetOverride</tspan>
<tspan x="10" y="3562">- prevent potential infinite recursion bug in function utility2.onNext</tspan>
<tspan x="10" y="3578"></tspan>
<tspan x="10" y="3594">2016-10-02 11:46:13 +0800u000a- npm publish 2016.9.1</tspan>
<tspan x="10" y="3610">- revamp lib.nedb.js</tspan>
<tspan x="10" y="3626">- reset onReadyAfter for testRun</tspan>
<tspan x="10" y="3642">- add function utility2.onNext</tspan>
<tspan x="10" y="3658">- streamline test.js</tspan>
<tspan x="10" y="3674"></tspan>
<tspan x="10" y="3690">2016-08-27 10:56:36 +0800u000a- npm publish 2016.8.2</tspan>
<tspan x="10" y="3706">- ensure utility2.dbSeedListUpsert runs after utility2.onResetAfter</tspan>
<tspan x="10" y="3722"></tspan>
<tspan x="10" y="3738">2016-08-27 05:40:58 +0800u000a- npm publish 2016.8.1</tspan>
<tspan x="10" y="3754">- migrate nedb-api from swagger-lite to utility2</tspan>
<tspan x="10" y="3770">- add functions utility2.db*</tspan>
<tspan x="10" y="3786"></tspan>
<tspan x="10" y="3802">2016-08-12 05:38:50 +0200u000a- npm publish 2016.7.5</tspan>
<tspan x="10" y="3818">- handle repl-server-error</tspan>
<tspan x="10" y="3834">- display instrumented-code in web-ui</tspan>
<tspan x="10" y="3850">- strip base64 '=' padding from local.utility2.sjclCipherAes128Encrypt</tspan>
<tspan x="10" y="3866"></tspan>
<tspan x="10" y="3882">2016-08-07 21:41:12 +0200u000a- npm publish 2016.7.4</tspan>
<tspan x="10" y="3898">- fix example.js quickstart demo</tspan>
<tspan x="10" y="3914"></tspan>
<tspan x="10" y="3930">2016-08-07 21:09:53 +0200u000a- npm publish 2016.7.3</tspan>
<tspan x="10" y="3946">- deploy standalone-app to heroku</tspan>
<tspan x="10" y="3962">- allow repl-server to be accessed remotely via tcp</tspan>
<tspan x="10" y="3978">- add coverage option to command 'utility2 start'</tspan>
<tspan x="10" y="3994">- rename functions in jslint, stateInit, tasks</tspan>
<tspan x="10" y="4010"></tspan>
<tspan x="10" y="4026">2016-07-31 14:25:38 +0200u000a- npm publish 2016.7.2</tspan>
<tspan x="10" y="4042">- fix code-coverage in example.js</tspan>
<tspan x="10" y="4058"></tspan>
<tspan x="10" y="4074">2016-07-31 14:02:32 +0200u000a- npm publish 2016.7.1</tspan>
<tspan x="10" y="4090">- allow packages that don't depend on utility2 to be built by it</tspan>
<tspan x="10" y="4106">- fix shell function shTravisEncryptYml</tspan>
<tspan x="10" y="4122">- rename debugPrint to debugInline</tspan>
<tspan x="10" y="4138"></tspan>
<tspan x="10" y="4154">2016-07-16 16:12:03 +0200u000a- npm publish 2016.6.2</tspan>
<tspan x="10" y="4170">- fix coverage-key collision bug in istanbul instrumenter</tspan>
<tspan x="10" y="4186"></tspan>
<tspan x="10" y="4202">2016-07-16 13:23:34 +0200u000a- npm publish 2016.6.1</tspan>
<tspan x="10" y="4218">- replace lib bcrypt with sjcl.misc.scrypt</tspan>
<tspan x="10" y="4234">- replace lib cryptojs with sjcl</tspan>
<tspan x="10" y="4250"></tspan>
<tspan x="10" y="4266">2016-07-01 02:54:13 +0200u000a- npm publish 2016.5.5</tspan>
<tspan x="10" y="4282">- explicitly require the macro /* istanbul instrument in package ... */ for a file to be covered</tspan>
<tspan x="10" y="4298">- generalize utility2.requireExampleJsFromReadme</tspan>
<tspan x="10" y="4314">- merge shell function shReadmeExportScripts into shInit</tspan>
<tspan x="10" y="4330"></tspan>
<tspan x="10" y="4346">2016-06-15 17:55:10 +0300u000a- npm publish 2016.5.4</tspan>
<tspan x="10" y="4362">- deploy standalone app to heroku test-server</tspan>
<tspan x="10" y="4378">- add file lib.nedb.js</tspan>
<tspan x="10" y="4394">- add 'run internal test' button in webpage</tspan>
<tspan x="10" y="4410">- add env var npm_config_mode_backend to disable utility2.serverLocalUrlTest</tspan>
<tspan x="10" y="4426">- add download link for example.js and example.sh in README.md</tspan>
<tspan x="10" y="4442">- add minified asset assets.app.min.js</tspan>
<tspan x="10" y="4458">- prevent side-effects in function utility2.docApiCreate</tspan>
<tspan x="10" y="4474">- template README.md with package.json</tspan>
<tspan x="10" y="4490">- add function utility2.jslintAndPrintHtml</tspan>
<tspan x="10" y="4506">- replace function utility2.requireFromScript with utility2.requireExampleJsFromReadme</tspan>
<tspan x="10" y="4522">- fix missing screen-capture of npmTestPublished</tspan>
<tspan x="10" y="4538"></tspan>
<tspan x="10" y="4554">2016-06-12 01:36:58 +0300u000a- npm publish 2016.5.3</tspan>
<tspan x="10" y="4570">- add homepage-link in api-doc</tspan>
<tspan x="10" y="4586">- fix test-report styling</tspan>
<tspan x="10" y="4602"></tspan>
<tspan x="10" y="4618">2016-06-11 19:57:41 +0300u000a- npm publish 2016.5.1</tspan>
<tspan x="10" y="4634">- add standalone-app download-link in test-page</tspan>
<tspan x="10" y="4650">- add homepage-link in test-page, test-report, coverage-report</tspan>
<tspan x="10" y="4666">- move shell function shDocApiCreate to javascript function testCase_build_doc</tspan>
<tspan x="10" y="4682">- add function utility2.middlewareJsonpStateGet, utility2.stateInit</tspan>
<tspan x="10" y="4698"></tspan>
<tspan x="10" y="4714">2016-05-30 14:45:08 +0300u000a- npm publish 2016.4.2</tspan>
<tspan x="10" y="4730">- add functions utility2.objectLiteral, utility2.onResetAfter, utility2.onResetBefore</tspan>
<tspan x="10" y="4746">- split function utility2.onReady into utility2.onReadyBefore and utility2.onReadyAfter</tspan>
<tspan x="10" y="4762"></tspan>
<tspan x="10" y="4778">2016-05-24 01:28:12 +0300u000a- npm publish 2016.4.1</tspan>
<tspan x="10" y="4794">- update electron-lite devDependency</tspan>
<tspan x="10" y="4810"></tspan>
<tspan x="10" y="4826">2016-05-20 17:37:40 +0300u000a- npm publish 2016.3.6</tspan>
<tspan x="10" y="4842">- jslint - remove hacky es6 generator support</tspan>
<tspan x="10" y="4858">- add shell function shHttpFileServer</tspan>
<tspan x="10" y="4874">- add functions utility2.cookieDict, utility2.cookieRemove, utility2.cookieRemoveAll, utility2.c\</tspan>
<tspan x="10" y="4890">ookieSet</tspan>
<tspan x="10" y="4906">- allow argument for arbitrary string method in utility2.templateRender</tspan>
<tspan x="10" y="4922"></tspan>
<tspan x="10" y="4938">2016-05-07 14:59:43 +0300u000a- fix utility2.FormData.prototype.append from crashing when it tri\</tspan>
<tspan x="10" y="4954">es to set value.name to a browser file-object</tspan>
<tspan x="10" y="4970">- improve performance of utility2.tryCatchOnError</tspan>
<tspan x="10" y="4986">- function utility2.jslintAndPrint - add css support for flexbox</tspan>
<tspan x="10" y="5002">- add function utility2.assertJsonEqual and utility2.assertJsonNotEqual</tspan>
<tspan x="10" y="5018">- use handlebars-like syntax each/if/unless in utility2.templateRender</tspan>
<tspan x="10" y="5034"></tspan>
<tspan x="10" y="5050">2016-04-25 18:01:41 +0300u000a- npm publish 2016.3.4</tspan>
<tspan x="10" y="5066">- prevent _http.request from running utility2.serverLocalRequestHandler more than once</tspan>
<tspan x="10" y="5082">- fix missing lib.cryptojs.js in /assets.utility2.rollup.js</tspan>
<tspan x="10" y="5098"></tspan>
<tspan x="10" y="5114">2016-04-22 20:38:16 +0300u000a- npm publish 2016.3.3</tspan>
<tspan x="10" y="5130">- fix README.md</tspan>
<tspan x="10" y="5146"></tspan>
<tspan x="10" y="5162">2016-04-22 19:47:42 +0300u000a- npm publish 2016.3.2</tspan>
<tspan x="10" y="5178">- merge various docker builds into alpha branch</tspan>
<tspan x="10" y="5194">- replace  and /Users/kaizhu/src/utility2 with /Users/kaizhu/src/utility2 in index.sh</tspan>
</text>
</svg>
