<svg height="5262" width="720" xmlns="http://www.w3.org/2000/svg">
<rect height="5262" fill="#555" width="720"></rect>
<text fill="#7f7" font-family="Courier New" font-size="12" xml:space="preserve">
<tspan x="10" y="26">2017-04-15 03:20:18 +0800u000async</tspan>
<tspan x="10" y="42"></tspan>
<tspan x="10" y="58">2017-04-15 03:01:42 +0800u000arename console.error(error.stack) -&gt; console.error(error)</tspan>
<tspan x="10" y="74"></tspan>
<tspan x="10" y="90">2017-04-15 03:00:36 +0800u000a- add debug-logs for requiring modules in function apidocCreate</tspan>
<tspan x="10" y="106"></tspan>
<tspan x="10" y="122">2017-04-15 02:28:41 +0800u000a- fix bug parsing package.json in shell-function shInit</tspan>
<tspan x="10" y="138"></tspan>
<tspan x="10" y="154">2017-04-14 15:46:32 +0800u000a[npm publish] - npm publish 2017.4.14</tspan>
<tspan x="10" y="170">- begin mass test-coverage of npm-ecosystem under https://github.com/npmtest</tspan>
<tspan x="10" y="186">- add default testCase testCase_buildCustomOrg_default</tspan>
<tspan x="10" y="202">- add shell-function shIsInGithubOrg to auto-determine whether using env-var $GITHUB_ORG is appr\</tspan>
<tspan x="10" y="218">opriate or not</tspan>
<tspan x="10" y="234">- add shell-functions shCryptoAesWithGithubOrg, shNpmNameListFetch</tspan>
<tspan x="10" y="250">- auto-screenCapture test-report and coverage.html in shell-function shBuildCiInternal</tspan>
<tspan x="10" y="266">- improve scaffolding feature of shell-function shBuildApp</tspan>
<tspan x="10" y="282">- merge env-vars $npm_package_buildNpmdoc and $npm_package_readmeParse into $npm_package_buildCu\</tspan>
<tspan x="10" y="298">stomOrg</tspan>
<tspan x="10" y="314">- merge shell-function shBuildCustomOrg into shBuildCiInternal</tspan>
<tspan x="10" y="330">- preserve percent-encoding in screenCapture files (so the url can be reconstructed)</tspan>
<tspan x="10" y="346"></tspan>
<tspan x="10" y="362">2017-04-07 15:50:56 +0800u000a[npm publish] - npm publish 2017.4.6</tspan>
<tspan x="10" y="378">- add auto-retry option to function onParallelList</tspan>
<tspan x="10" y="394">- add depencency-tree-visualization and dependency-tree-size to README.md</tspan>
<tspan x="10" y="410">- add html-scraper to function browerTest</tspan>
<tspan x="10" y="426">- add property 'sortDefault' to dbTable, which defaults to [{ fieldName: '_timeUpdated', isDesce\</tspan>
<tspan x="10" y="442">nding: true }]</tspan>
<tspan x="10" y="458">- add optional callback to function dbTable.prototype.save</tspan>
<tspan x="10" y="474">- add shell-functions shGithubRepoListCreate, shNpmNameNormalize, shNpmPackageDependencyTreeCrea\</tspan>
<tspan x="10" y="490">te, shOnParallelListSpawn, shTravisRepoListFilterForNonActive</tspan>
<tspan x="10" y="506">- add shell-function shNpmPackageNameListGetFromUrl, which allows shNpmdocRepoListCreate to crea\</tspan>
<tspan x="10" y="522">te npmdocs directly from npm-website</tspan>
<tspan x="10" y="538">- enable auto-cancel-mode by default when creating travis-repo</tspan>
<tspan x="10" y="554">- streamline build-process for 'npm publishAfterCommitAfterBuild' to just one stage (alpha)</tspan>
<tspan x="10" y="570"></tspan>
<tspan x="10" y="586">2017-03-30 22:40:41 +0800u000a[npm publish] - npm publish 2017.3.29</tspan>
<tspan x="10" y="602">- add args $modeBrowserTest and $url to shell-function shBrowserTest</tspan>
<tspan x="10" y="618">- add branch-cron</tspan>
<tspan x="10" y="634">- add function dbTableTravisRepoCreate, dbTableTravisRepoCrudGetManyByQuery, dbTableTravisRepoUp\</tspan>
<tspan x="10" y="650">date, and listForEachAsync</tspan>
<tspan x="10" y="666">- add github-crud function contentTouchList</tspan>
<tspan x="10" y="682">- add shell-function shGitRemotePromote to auto-promote branches alpha -&gt; beta -&gt; master</tspan>
<tspan x="10" y="698">- add shell-function shGithubRepoListTouch, shListUnflattenAndApply, and shNpmInstallWithPeerDep\</tspan>
<tspan x="10" y="714">endencies</tspan>
<tspan x="10" y="730">- auto update public travis-repos in alpha-branch</tspan>
<tspan x="10" y="746">- deprecate ssh-key in favor of github oauth - https://stackoverflow.com/questions/18027115/comm\</tspan>
<tspan x="10" y="762">itting-via-travis-ci-failing</tspan>
<tspan x="10" y="778">- enable shNpmdocRepoListCreate in travis-ci</tspan>
<tspan x="10" y="794">- enhance shell-function shNpmPackageListingCreate to add total package-size to package-listing</tspan>
<tspan x="10" y="810">- fix apidoc bug 'Function.prototype.toString is not generic'</tspan>
<tspan x="10" y="826">- fix shell-function shInit bug - export: npm_package_react-native: bad variable name</tspan>
<tspan x="10" y="842">- sanitize sensitive env-vars from electron.*.html</tspan>
<tspan x="10" y="858">- use optional remote-credentials during travis-ci build</tspan>
<tspan x="10" y="874"></tspan>
<tspan x="10" y="890">2017-03-22 01:58:56 +0800u000a[npm publish] - npm publish 2017.3.21</tspan>
<tspan x="10" y="906">- security - rewrite function moduleDirname, so that it doesn't have to require arbitrary module\</tspan>
<tspan x="10" y="922">s</tspan>
<tspan x="10" y="938">- add github-crud command 'touch' to trigger github-hooks and add commit-messages without changi\</tspan>
<tspan x="10" y="954">ng files</tspan>
<tspan x="10" y="970">- add commit-message-meta macro 'promote branch1 -&gt; branch2'</tspan>
<tspan x="10" y="986">- add env var TRAVIS_REPO_CREATE_FORCE to force re-creation of npmdoc</tspan>
<tspan x="10" y="1002">- add env var npm_package_buildNpmdocMain to customize npmdoc target</tspan>
<tspan x="10" y="1018">- add optional commit-message for PUT, DELETE, and TOUCH requests in github-crud</tspan>
<tspan x="10" y="1034">- add package-description to apidoc</tspan>
<tspan x="10" y="1050">- add package-listing to npmdoc</tspan>
<tspan x="10" y="1066">- add package.json to npmdoc</tspan>
<tspan x="10" y="1082">- add async shell-function shNpmdocRepoListCreate to automate creation of npmdoc's</tspan>
<tspan x="10" y="1098">- add shell function shUtility2GrepTravisYml</tspan>
<tspan x="10" y="1114">- fix 'span class' error in https://www.npmjs.com/package/npmdoc-glob</tspan>
<tspan x="10" y="1130">- merge function local.runIfTrue -&gt; local.nop</tspan>
<tspan x="10" y="1146">- rename lib.xxx.npm_scripts.sh to npm_scripts.sh</tspan>
<tspan x="10" y="1162">- shBuildPrint message for deprecate and publish operations</tspan>
<tspan x="10" y="1178"></tspan>
<tspan x="10" y="1194">2017-03-17 21:15:11 +0800u000a[npm publish] - npm publish 2017.3.17</tspan>
<tspan x="10" y="1210">- fix quickstart demo for example.js</tspan>
<tspan x="10" y="1226">- allow auto-deprecating of aliases in publish branch</tspan>
<tspan x="10" y="1242">- allow auto-publishing of aliases in publish branch</tspan>
<tspan x="10" y="1258"></tspan>
<tspan x="10" y="1274">2017-03-17 05:05:24 +0800u000a[npm publish] - npm publish 2017.3.16</tspan>
<tspan x="10" y="1290">- add function buildNpmdoc and buildTest</tspan>
<tspan x="10" y="1306">- automate building and publishing of npmdoc's</tspan>
<tspan x="10" y="1322">- commit tag 'npm publish' will publish package in alpha-branch and promote to beta</tspan>
<tspan x="10" y="1338">- harden shell-function shPasswordEnvUnset</tspan>
<tspan x="10" y="1354">- remove '|| return $?' from shell-scripts when possible to fix 'set -e' failing to exit on erro\</tspan>
<tspan x="10" y="1370">r</tspan>
<tspan x="10" y="1386">- rename function onErrorAssert -&gt; onErrorThrow</tspan>
<tspan x="10" y="1402">- partially revert npm_package_nameAlias back to npm_package_name</tspan>
<tspan x="10" y="1418"></tspan>
<tspan x="10" y="1434">2017-03-11 03:56:44 +0800u000a- npm publish 2017.3.10</tspan>
<tspan x="10" y="1450">- fix build in beta branch</tspan>
<tspan x="10" y="1466"></tspan>
<tspan x="10" y="1482">2017-03-11 02:50:36 +0800u000a- npm publish 2017.3.9</tspan>
<tspan x="10" y="1498">- add functions moduleDirname and onErrorAssert</tspan>
<tspan x="10" y="1514">- add shell-command shPasswordEnvUnset</tspan>
<tspan x="10" y="1530">- rename name api-doc -&gt; apidoc</tspan>
<tspan x="10" y="1546">- revamp build scripts</tspan>
<tspan x="10" y="1562">- split function buildApidoc into new file lib.apidoc.js</tspan>
<tspan x="10" y="1578">- verify README.md's build-links during build</tspan>
<tspan x="10" y="1594"></tspan>
<tspan x="10" y="1610">2017-03-01 17:52:26 +0800u000a- npm publish 2017.2.28</tspan>
<tspan x="10" y="1626">- build - add publish build-branch</tspan>
<tspan x="10" y="1642">- build - auto-clean build if commit-message is CLEAN_BUILD</tspan>
<tspan x="10" y="1658">- build - auto-tag branch in master build-branch</tspan>
<tspan x="10" y="1674">- README.md - normalize browser-script in example.js</tspan>
<tspan x="10" y="1690">- promote utility2 plug in README.md, api-doc, code-coverage, rollup, test-coverage</tspan>
<tspan x="10" y="1706">- lib.db.js - add ttl-cache</tspan>
<tspan x="10" y="1722">- lib.utility2.js - revamp function buildApiDoc</tspan>
<tspan x="10" y="1738">- lib.utility2.sh - revamp shell-function shNpmPublish</tspan>
<tspan x="10" y="1754"></tspan>
<tspan x="10" y="1770">2017-02-21 03:06:56 +0800u000a- npm publish 2017.2.20</tspan>
<tspan x="10" y="1786">- add field nameOriginal to package.json</tspan>
<tspan x="10" y="1802">- do not cover rollups</tspan>
<tspan x="10" y="1818">- merge shell-function shNpmPublishAlias into shNpmPublish</tspan>
<tspan x="10" y="1834">- normalize example.html</tspan>
<tspan x="10" y="1850"></tspan>
<tspan x="10" y="1866">2017-02-20 02:49:59 +0800u000a- npm publish 2017.2.19</tspan>
<tspan x="10" y="1882">- replace env var npm_package_name with npm_package_nameAlias in istanbul code-coverage</tspan>
<tspan x="10" y="1898">- revamp shell-function shNpmPublishAlias</tspan>
<tspan x="10" y="1914"></tspan>
<tspan x="10" y="1930">2017-02-19 01:09:51 +0800u000a- npm publish 2017.2.18</tspan>
<tspan x="10" y="1946">- add shell-function shReadmeTestExampleJs</tspan>
<tspan x="10" y="1962">- do not auto-uglify js-assets in production</tspan>
<tspan x="10" y="1978">- rename doc-api to api-doc</tspan>
<tspan x="10" y="1994">- rename hrku01 to h1</tspan>
<tspan x="10" y="2010">- rename local.template* to local.assetsDict[assets.*.template]</tspan>
<tspan x="10" y="2026">- revamp function buildApiDoc</tspan>
<tspan x="10" y="2042">- revamp function buildReadme and include testCase_buildReadme_default inside testCase_buildApp_\</tspan>
<tspan x="10" y="2058">default</tspan>
<tspan x="10" y="2074">- remove functions assetsAlias, assetsWrite</tspan>
<tspan x="10" y="2090">- use env var npm_package_nameAlias over npm_package_name</tspan>
<tspan x="10" y="2106"></tspan>
<tspan x="10" y="2122">2017-02-06 21:14:20 +0800u000a- npm publish 2017.2.6</tspan>
<tspan x="10" y="2138">- allow env var npm_config_mode_test_case to have comma-separated list of test-cases</tspan>
<tspan x="10" y="2154">- replace function requestResponseCleanup with streamListCleanup</tspan>
<tspan x="10" y="2170">- don't use nameAlias in assets</tspan>
<tspan x="10" y="2186">- rename base64 functions with base64 as prefix</tspan>
<tspan x="10" y="2202">- add commandline options --eval -e --interactive -i</tspan>
<tspan x="10" y="2218">- add env var npm_pacakge_nameHeroku</tspan>
<tspan x="10" y="2234">- add function assetsAlias</tspan>
<tspan x="10" y="2250">- add shell-functions shUtility2DependentsSync shUtility2RollupCreate</tspan>
<tspan x="10" y="2266">- merge files lib.* into standaalone file assets.utility2.rollup.js</tspan>
<tspan x="10" y="2282">- merge files lib.swgg.* into lib.swgg.js</tspan>
<tspan x="10" y="2298"></tspan>
<tspan x="10" y="2314">2017-01-27 14:44:40 +0800u000a- move most logic from Dockerfile.latest to Dockerfile.base</tspan>
<tspan x="10" y="2330">- add shell-function shImageToDataUri</tspan>
<tspan x="10" y="2346">- add shell-function shSshReverseTunnel</tspan>
<tspan x="10" y="2362">- add function sjclHmacSha256Create</tspan>
<tspan x="10" y="2378">- replace localhost with 127.0.0.1</tspan>
<tspan x="10" y="2394"></tspan>
<tspan x="10" y="2410">2017-01-05 20:57:31 +0800u000a- npm publish 2017.1.5</tspan>
<tspan x="10" y="2426">- automate readme-generation with new functions local.buildReadmeElectronLite and local.buildRea\</tspan>
<tspan x="10" y="2442">dmeJslintLite</tspan>
<tspan x="10" y="2458">- revamp github-crud-api</tspan>
<tspan x="10" y="2474">- add function httpRequest</tspan>
<tspan x="10" y="2490">- add shell-function shNpmPublishAlias</tspan>
<tspan x="10" y="2506">- remove function domQuerySelectorAll</tspan>
<tspan x="10" y="2522">- update documentation-generator</tspan>
<tspan x="10" y="2538"></tspan>
<tspan x="10" y="2554">2016-12-26 15:10:22 +0800u000a- add file lib.swgg.css</tspan>
<tspan x="10" y="2570">- add file lib.swgg.js</tspan>
<tspan x="10" y="2586">- add file lib.swgg.json-schema.json</tspan>
<tspan x="10" y="2602">- add file lib.swgg.petstore.json</tspan>
<tspan x="10" y="2618">- add file lib.swgg.schema.json</tspan>
<tspan x="10" y="2634">- add file lib.swgg.ui.js</tspan>
<tspan x="10" y="2650">- add heroku-postbuild npm-script</tspan>
<tspan x="10" y="2666"></tspan>
<tspan x="10" y="2682">2016-12-25 02:10:59 +0800u000a- npm publish 2016.12.2</tspan>
<tspan x="10" y="2698">- merge github-crud into this package</tspan>
<tspan x="10" y="2714">- revamp heroku-deploy</tspan>
<tspan x="10" y="2730">- add middlewareForwardProxy</tspan>
<tspan x="10" y="2746">- add modeDebug option to function local.ajax</tspan>
<tspan x="10" y="2762"></tspan>
<tspan x="10" y="2778">2016-12-13 21:36:58 +0800u000a- npm publish 2016.12.1</tspan>
<tspan x="10" y="2794">- merge utility2 namespace into local namespace</tspan>
<tspan x="10" y="2810">- revamp encryption features to primarily use json-web-encryption</tspan>
<tspan x="10" y="2826"></tspan>
<tspan x="10" y="2842">2016-12-02 12:46:27 +0800u000a- npm publish 2016.11.2</tspan>
<tspan x="10" y="2858">- streamline build-process for other packages</tspan>
<tspan x="10" y="2874"></tspan>
<tspan x="10" y="2890">2016-11-29 15:15:04 +0800u000a- npm publish 2016.11.1</tspan>
<tspan x="10" y="2906">- rename files index.* -&gt; lib.utility2.*</tspan>
<tspan x="10" y="2922">- use 'local' as primary namespace for tests</tspan>
<tspan x="10" y="2938">- replace function uglifyIfProduction with assetsWrite</tspan>
<tspan x="10" y="2954">- rename function middlewareJsonpStateInitDefault -&gt; middlewareJsonpStateInit</tspan>
<tspan x="10" y="2970">- add env npm_package_nameAlias</tspan>
<tspan x="10" y="2986">- add webkit-polyfill for TextDecoder and TextEncoder</tspan>
<tspan x="10" y="3002"></tspan>
<tspan x="10" y="3018">2016-11-21 09:31:23 +0800u000a- npm publish 2016.10.4</tspan>
<tspan x="10" y="3034">- add es6-syntax support for code-coverage</tspan>
<tspan x="10" y="3050">- add functions utility2.normalizeDict and utility2.normalizeList</tspan>
<tspan x="10" y="3066">- coverage - globalize local.codeDict to global.__coverageCodeDict__</tspan>
<tspan x="10" y="3082">- coverage - add in-file config-var /* istanbul ignore all */ to ignore the file</tspan>
<tspan x="10" y="3098"></tspan>
<tspan x="10" y="3114">2016-11-11 20:03:17 +0800u000a- npm publish 2016.10.3</tspan>
<tspan x="10" y="3130">- coverage - add env-variable npm_config_mode_coverage_append to allow appending coverage to pre\</tspan>
<tspan x="10" y="3146">vious reports</tspan>
<tspan x="10" y="3162">- coverage - change behavior of npm_config_mode_coverage=all to cover all files</tspan>
<tspan x="10" y="3178">- function utility2.replStart - make it a standalone function</tspan>
<tspan x="10" y="3194">- function utility2.uglify - prefer uglifying code with 80-column-width</tspan>
<tspan x="10" y="3210"></tspan>
<tspan x="10" y="3226">2016-11-07 23:47:37 +0800u000a- npm publish 2016.10.2</tspan>
<tspan x="10" y="3242">- decouple lib.db.js from utility2's init</tspan>
<tspan x="10" y="3258">- replace loading spinner with topbar</tspan>
<tspan x="10" y="3274">- fix utility2.errorDefault getting its stack prepended</tspan>
<tspan x="10" y="3290">- rename .ajaxProgressDiv -&gt; #ajaxProgressDiv1, .testReportDiv -&gt; #testReportDiv1</tspan>
<tspan x="10" y="3306">- merge functions utility2.taskOnTaskUpsert and utility2.taskOnErrorPush -&gt; utility2.taskCreate</tspan>
<tspan x="10" y="3322">- change signature of function utility2.taskCreateCached</tspan>
<tspan x="10" y="3338">- remove functions utility2.ajaxProgressShow, utility2.dbReset</tspan>
<tspan x="10" y="3354">- README.md - add cdn-download links</tspan>
<tspan x="10" y="3370">- README.md - replace alpha api-doc with beta api-doc</tspan>
<tspan x="10" y="3386"></tspan>
<tspan x="10" y="3402">2016-10-17 20:46:38 +0800u000a- npm publish 2016.10.1</tspan>
<tspan x="10" y="3418">- migrate from lib.nedb.js to lib.db.js</tspan>
<tspan x="10" y="3434">- make index.js a standalone script</tspan>
<tspan x="10" y="3450">- add property utility2.testCaseDict</tspan>
<tspan x="10" y="3466">- cull testCase_xxx properties in function docApiCreate</tspan>
<tspan x="10" y="3482">- auto-default null / undefined arguments to empty object {} in utility2.objectSetDefault and ut\</tspan>
<tspan x="10" y="3498">ility2.objectSetOverride</tspan>
<tspan x="10" y="3514">- prevent potential infinite recursion bug in function utility2.onNext</tspan>
<tspan x="10" y="3530"></tspan>
<tspan x="10" y="3546">2016-10-02 11:46:13 +0800u000a- npm publish 2016.9.1</tspan>
<tspan x="10" y="3562">- revamp lib.nedb.js</tspan>
<tspan x="10" y="3578">- reset onReadyAfter for testRun</tspan>
<tspan x="10" y="3594">- add function utility2.onNext</tspan>
<tspan x="10" y="3610">- streamline test.js</tspan>
<tspan x="10" y="3626"></tspan>
<tspan x="10" y="3642">2016-08-27 10:56:36 +0800u000a- npm publish 2016.8.2</tspan>
<tspan x="10" y="3658">- ensure utility2.dbSeedListUpsert runs after utility2.onResetAfter</tspan>
<tspan x="10" y="3674"></tspan>
<tspan x="10" y="3690">2016-08-27 05:40:58 +0800u000a- npm publish 2016.8.1</tspan>
<tspan x="10" y="3706">- migrate nedb-api from swagger-lite to utility2</tspan>
<tspan x="10" y="3722">- add functions utility2.db*</tspan>
<tspan x="10" y="3738"></tspan>
<tspan x="10" y="3754">2016-08-12 05:38:50 +0200u000a- npm publish 2016.7.5</tspan>
<tspan x="10" y="3770">- handle repl-server-error</tspan>
<tspan x="10" y="3786">- display instrumented-code in web-ui</tspan>
<tspan x="10" y="3802">- strip base64 '=' padding from local.utility2.sjclCipherAes128Encrypt</tspan>
<tspan x="10" y="3818"></tspan>
<tspan x="10" y="3834">2016-08-07 21:41:12 +0200u000a- npm publish 2016.7.4</tspan>
<tspan x="10" y="3850">- fix example.js quickstart demo</tspan>
<tspan x="10" y="3866"></tspan>
<tspan x="10" y="3882">2016-08-07 21:09:53 +0200u000a- npm publish 2016.7.3</tspan>
<tspan x="10" y="3898">- deploy standalone-app to heroku</tspan>
<tspan x="10" y="3914">- allow repl-server to be accessed remotely via tcp</tspan>
<tspan x="10" y="3930">- add coverage option to command 'utility2 start'</tspan>
<tspan x="10" y="3946">- rename functions in jslint, stateInit, tasks</tspan>
<tspan x="10" y="3962"></tspan>
<tspan x="10" y="3978">2016-07-31 14:25:38 +0200u000a- npm publish 2016.7.2</tspan>
<tspan x="10" y="3994">- fix code-coverage in example.js</tspan>
<tspan x="10" y="4010"></tspan>
<tspan x="10" y="4026">2016-07-31 14:02:32 +0200u000a- npm publish 2016.7.1</tspan>
<tspan x="10" y="4042">- allow packages that don't depend on utility2 to be built by it</tspan>
<tspan x="10" y="4058">- fix shell function shTravisEncryptYml</tspan>
<tspan x="10" y="4074">- rename debugPrint to debugInline</tspan>
<tspan x="10" y="4090"></tspan>
<tspan x="10" y="4106">2016-07-16 16:12:03 +0200u000a- npm publish 2016.6.2</tspan>
<tspan x="10" y="4122">- fix coverage-key collision bug in istanbul instrumenter</tspan>
<tspan x="10" y="4138"></tspan>
<tspan x="10" y="4154">2016-07-16 13:23:34 +0200u000a- npm publish 2016.6.1</tspan>
<tspan x="10" y="4170">- replace lib bcrypt with sjcl.misc.scrypt</tspan>
<tspan x="10" y="4186">- replace lib cryptojs with sjcl</tspan>
<tspan x="10" y="4202"></tspan>
<tspan x="10" y="4218">2016-07-01 02:54:13 +0200u000a- npm publish 2016.5.5</tspan>
<tspan x="10" y="4234">- explicitly require the macro /* istanbul instrument in package ... */ for a file to be covered</tspan>
<tspan x="10" y="4250">- generalize utility2.requireExampleJsFromReadme</tspan>
<tspan x="10" y="4266">- merge shell function shReadmeExportScripts into shInit</tspan>
<tspan x="10" y="4282"></tspan>
<tspan x="10" y="4298">2016-06-15 17:55:10 +0300u000a- npm publish 2016.5.4</tspan>
<tspan x="10" y="4314">- deploy standalone app to heroku test-server</tspan>
<tspan x="10" y="4330">- add file lib.nedb.js</tspan>
<tspan x="10" y="4346">- add 'run internal test' button in webpage</tspan>
<tspan x="10" y="4362">- add env var npm_config_mode_backend to disable utility2.serverLocalUrlTest</tspan>
<tspan x="10" y="4378">- add download link for example.js and example.sh in README.md</tspan>
<tspan x="10" y="4394">- add minified asset assets.app.min.js</tspan>
<tspan x="10" y="4410">- prevent side-effects in function utility2.docApiCreate</tspan>
<tspan x="10" y="4426">- template README.md with package.json</tspan>
<tspan x="10" y="4442">- add function utility2.jslintAndPrintHtml</tspan>
<tspan x="10" y="4458">- replace function utility2.requireFromScript with utility2.requireExampleJsFromReadme</tspan>
<tspan x="10" y="4474">- fix missing screen-capture of npmTestPublished</tspan>
<tspan x="10" y="4490"></tspan>
<tspan x="10" y="4506">2016-06-12 01:36:58 +0300u000a- npm publish 2016.5.3</tspan>
<tspan x="10" y="4522">- add homepage-link in api-doc</tspan>
<tspan x="10" y="4538">- fix test-report styling</tspan>
<tspan x="10" y="4554"></tspan>
<tspan x="10" y="4570">2016-06-11 19:57:41 +0300u000a- npm publish 2016.5.1</tspan>
<tspan x="10" y="4586">- add standalone-app download-link in test-page</tspan>
<tspan x="10" y="4602">- add homepage-link in test-page, test-report, coverage-report</tspan>
<tspan x="10" y="4618">- move shell function shDocApiCreate to javascript function testCase_build_doc</tspan>
<tspan x="10" y="4634">- add function utility2.middlewareJsonpStateGet, utility2.stateInit</tspan>
<tspan x="10" y="4650"></tspan>
<tspan x="10" y="4666">2016-05-30 14:45:08 +0300u000a- npm publish 2016.4.2</tspan>
<tspan x="10" y="4682">- add functions utility2.objectLiteral, utility2.onResetAfter, utility2.onResetBefore</tspan>
<tspan x="10" y="4698">- split function utility2.onReady into utility2.onReadyBefore and utility2.onReadyAfter</tspan>
<tspan x="10" y="4714"></tspan>
<tspan x="10" y="4730">2016-05-24 01:28:12 +0300u000a- npm publish 2016.4.1</tspan>
<tspan x="10" y="4746">- update electron-lite devDependency</tspan>
<tspan x="10" y="4762"></tspan>
<tspan x="10" y="4778">2016-05-20 17:37:40 +0300u000a- npm publish 2016.3.6</tspan>
<tspan x="10" y="4794">- jslint - remove hacky es6 generator support</tspan>
<tspan x="10" y="4810">- add shell function shHttpFileServer</tspan>
<tspan x="10" y="4826">- add functions utility2.cookieDict, utility2.cookieRemove, utility2.cookieRemoveAll, utility2.c\</tspan>
<tspan x="10" y="4842">ookieSet</tspan>
<tspan x="10" y="4858">- allow argument for arbitrary string method in utility2.templateRender</tspan>
<tspan x="10" y="4874"></tspan>
<tspan x="10" y="4890">2016-05-07 14:59:43 +0300u000a- fix utility2.FormData.prototype.append from crashing when it tri\</tspan>
<tspan x="10" y="4906">es to set value.name to a browser file-object</tspan>
<tspan x="10" y="4922">- improve performance of utility2.tryCatchOnError</tspan>
<tspan x="10" y="4938">- function utility2.jslintAndPrint - add css support for flexbox</tspan>
<tspan x="10" y="4954">- add function utility2.assertJsonEqual and utility2.assertJsonNotEqual</tspan>
<tspan x="10" y="4970">- use handlebars-like syntax each/if/unless in utility2.templateRender</tspan>
<tspan x="10" y="4986"></tspan>
<tspan x="10" y="5002">2016-04-25 18:01:41 +0300u000a- npm publish 2016.3.4</tspan>
<tspan x="10" y="5018">- prevent _http.request from running utility2.serverLocalRequestHandler more than once</tspan>
<tspan x="10" y="5034">- fix missing lib.cryptojs.js in /assets.utility2.rollup.js</tspan>
<tspan x="10" y="5050"></tspan>
<tspan x="10" y="5066">2016-04-22 20:38:16 +0300u000a- npm publish 2016.3.3</tspan>
<tspan x="10" y="5082">- fix README.md</tspan>
<tspan x="10" y="5098"></tspan>
<tspan x="10" y="5114">2016-04-22 19:47:42 +0300u000a- npm publish 2016.3.2</tspan>
<tspan x="10" y="5130">- merge various docker builds into alpha branch</tspan>
<tspan x="10" y="5146">- replace  and /Users/kaizhu/src/utility2 with /Users/kaizhu/src/utility2 in index.sh</tspan>
<tspan x="10" y="5162"></tspan>
<tspan x="10" y="5178">2016-04-20 20:17:43 +0300u000a- npm publish 2016.3.1</tspan>
<tspan x="10" y="5194">- build and push docker images in travis</tspan>
<tspan x="10" y="5210">- replace shell function shReadmeExportFile with shReadmeExportScripts</tspan>
<tspan x="10" y="5226">- add shell function shFileTrimLeft</tspan>
<tspan x="10" y="5242">- rename utility2.ajax's options.responseType 'response' to 'stream'</tspan>
</text>
</svg>
